<?xml version="1.0" encoding="UTF-8"?>
<svg viewBox="182 108 215 217" xmlns="http://www.w3.org/2000/svg">
  <path d="M0 0 C3.16 1.25 6.2 2.55 9.2 4.16 C10.33 4.76 10.33 4.76 11.48 5.37 C12.25 5.78 13.02 6.2 13.81 6.62 C14.6 7.04 15.38 7.46 16.2 7.89 C18.13 8.93 20.06 9.96 22 11 C22 11.66 22 12.32 22 13 C22.51 13.08 23.03 13.17 23.56 13.25 C26.97 14.29 29.88 16.08 32.93 17.87 C33.54 18.22 34.15 18.57 34.77 18.94 C37.36 20.44 39.93 21.96 42.49 23.5 C45.67 25.4 48.89 27.19 52.12 29 C70.79 39.46 70.79 39.46 77.49 43.63 C80.03 45.12 80.03 45.12 83.2 46.03 C87.17 47.56 89.24 48.71 92 52 C93.98 58.81 93.59 66.1 93.39 73.13 C93.31 76.55 93.33 79.97 93.37 83.39 C93.35 85.57 93.33 87.75 93.3 89.94 C93.31 91.46 93.31 91.46 93.32 93.02 C93.05 99.96 93.05 99.96 90.01 102.94 C87.73 104.47 85.45 105.76 83 107 C82.01 107.66 81.02 108.32 80 109 C81.26 109.64 82.54 110.29 83.81 110.93 C84.52 111.29 85.22 111.65 85.95 112.02 C88.11 113.1 88.11 113.1 91 114 C92.18 116.36 92.19 117.96 92.3 120.61 C92.34 121.57 92.38 122.53 92.42 123.51 C92.55 127.91 92.65 132.3 92.73 136.7 C92.78 139.01 92.86 141.33 92.96 143.64 C93.76 162.91 93.76 162.91 89.44 168.01 C86.31 169.85 83.47 170.96 80 172 C78.31 172.85 76.64 173.74 75 174.68 C74.11 175.16 73.23 175.63 72.32 176.12 C66.89 179.18 61.57 182.43 56.25 185.68 C51.86 188.35 47.45 190.82 42.83 193.07 C39.99 194.5 37.31 196.18 34.62 197.87 C32.95 198.91 32.95 198.91 31.24 199.97 C30.17 200.64 29.1 201.31 28 202 C22.74 205.23 17.51 208.3 11.95 210.98 C9.06 212.48 6.37 214.25 3.66 216.04 C2 217 2 217 0 217 C-0.15 196.82 -0.3 176.65 -0.44 156.48 C-0.5 147.1 -0.57 137.73 -0.64 128.36 C-0.98 85.55 -1.13 42.79 0 0 Z M28 51 C28 88.95 28 126.9 28 166 C31.3 164.35 34.6 162.7 38 161 C38 160.34 38 159.68 38 159 C39.3 158.62 39.3 158.62 40.62 158.25 C44.19 156.92 46.86 155.13 50 153 C52.52 151.95 55.03 150.98 57.63 150.14 C60.19 148.26 60.19 148.26 60.4 145.69 C60.49 142.71 60.43 139.78 60.31 136.81 C60.27 135.25 60.27 135.25 60.24 133.67 C60.18 131.11 60.1 128.55 60 126 C58.68 125.67 57.36 125.34 56 125 C56 124.34 56 123.68 56 123 C54.84 122.39 53.68 121.79 52.49 121.17 C50.95 120.36 49.41 119.55 47.87 118.75 C47.11 118.35 46.35 117.95 45.57 117.55 C42.12 115.73 38.77 113.91 35.57 111.7 C33.23 109.81 33.23 109.81 31 110 C31 109.01 31 108.02 31 107 C31.73 106.73 32.46 106.46 33.22 106.18 C35.9 105.04 38.01 103.74 40.37 102.06 C44.15 99.47 47.74 97.66 52 96 C53.34 95.34 54.67 94.68 56 94 C56 93.34 56 92.68 56 92 C57.98 91.5 57.98 91.5 60 91 C60 83.74 60 76.48 60 69 C57.03 67.35 54.06 65.7 51 64 C49.93 63.4 48.87 62.81 47.78 62.19 C46.88 61.7 45.98 61.2 45.06 60.68 C43.68 59.91 43.68 59.91 42.28 59.13 C40.12 57.85 40.12 57.85 38 58 C38 57.34 38 56.68 38 56 C34.7 54.35 31.4 52.7 28 51 Z" fill="currentColor" transform="translate(294,108)"/>
  <path d="M0 0 C0 29.04 0 58.08 0 88 C-4.31 86.27 -8.14 84.27 -12.12 81.93 C-16.89 79.11 -16.89 79.11 -22 77 C-22 76.34 -22 75.68 -22 75 C-23.17 74.53 -23.17 74.53 -24.37 74.06 C-27 73 -27 73 -29 72 C-29.33 65.4 -29.66 58.8 -30 52 C-31.27 52.86 -32.55 53.73 -33.87 54.62 C-49.9 65.3 -49.9 65.3 -58 68 C-58 68.66 -58 69.32 -58 70 C-56.92 70.39 -56.92 70.39 -55.82 70.79 C-52.92 72.03 -50.5 73.5 -47.87 75.25 C-44.15 77.66 -40.41 79.91 -36.5 82 C-30.8 85.04 -25.41 88.48 -20 92 C-15.08 95.14 -10.1 98.09 -4.98 100.88 C-3.27 101.84 -1.62 102.91 0 104 C0.36 106.01 0.36 106.01 0.36 108.53 C0.36 109.48 0.36 110.43 0.37 111.41 C0.36 112.46 0.35 113.51 0.34 114.6 C0.34 116.25 0.34 116.25 0.34 117.94 C0.33 121.59 0.31 125.25 0.29 128.91 C0.28 131.44 0.28 133.97 0.28 136.5 C0.26 142.49 0.24 148.48 0.21 154.47 C0.18 161.28 0.16 168.1 0.15 174.92 C0.11 188.94 0.06 202.97 0 217 C-5 215.02 -9.6 212.59 -14.31 210 C-15.19 209.51 -16.08 209.02 -16.99 208.52 C-23.21 205.06 -29.26 201.4 -35.25 197.56 C-40.31 194.35 -45.52 191.52 -50.84 188.76 C-55.02 186.56 -58.91 184.15 -62.79 181.45 C-67.02 178.66 -71.52 176.35 -76 174 C-76 173.34 -76 172.68 -76 172 C-76.71 171.87 -77.43 171.75 -78.17 171.63 C-83.23 170.49 -87.33 168.75 -91 165 C-92.39 160.3 -92.16 155.69 -91.97 150.85 C-91.95 149.47 -91.94 148.08 -91.93 146.7 C-91.89 143.08 -91.79 139.46 -91.68 135.84 C-91.58 132.14 -91.53 128.44 -91.48 124.74 C-91.38 117.49 -91.21 110.24 -91 103 C-90.01 102.5 -90.01 102.5 -89 102 C-86.52 103.13 -84.18 104.31 -81.81 105.62 C-81.12 105.99 -80.44 106.36 -79.74 106.74 C-76.35 108.6 -73.09 110.49 -70 112.81 C-66.72 115.19 -63.73 116.5 -60 118 C-58.15 119.84 -58.84 122.86 -58.82 125.33 C-58.78 127.27 -58.78 127.27 -58.75 129.25 C-58.71 131.31 -58.68 133.37 -58.67 135.43 C-58.65 137.42 -58.61 139.41 -58.57 141.39 C-58.55 142.59 -58.54 143.78 -58.53 145.01 C-58.28 148.07 -58.28 148.07 -56.15 149.83 C-53.87 151.06 -51.52 152.01 -49.12 152.98 C-42.36 156.2 -36.21 160.85 -30 165 C-29.7 159 -29.48 153.01 -29.34 147.01 C-29.28 144.97 -29.19 142.93 -29.09 140.89 C-28 129.23 -28 129.23 -32.55 119.17 C-35.66 117.35 -38.59 116.15 -42 115 C-43.66 114.06 -45.32 113.08 -46.93 112.06 C-47.73 111.58 -48.53 111.1 -49.36 110.6 C-51.32 109.41 -53.28 108.2 -55.23 106.98 C-61.96 102.73 -61.96 102.73 -69 99 C-74.92 96.16 -80.51 92.59 -86 89 C-86.87 88.46 -87.75 87.92 -88.66 87.36 C-91.34 84.64 -91.56 83.12 -91.56 79.36 C-91.52 78.27 -91.52 78.27 -91.48 77.17 C-91.48 76.42 -91.47 75.67 -91.46 74.9 C-91.43 72.51 -91.37 70.13 -91.31 67.75 C-91.28 66.13 -91.26 64.51 -91.24 62.89 C-91.18 58.92 -91.1 54.96 -91 51 C-89.86 50.56 -89.86 50.56 -88.71 50.12 C-85.21 48.67 -82.08 46.73 -78.87 44.75 C-74.42 42.03 -69.97 39.39 -65.37 36.93 C-60.12 34.12 -55.08 31.00 -50.04 27.83 C-47.08 26.05 -44.08 24.54 -41 23 C-38.75 21.66 -36.52 20.31 -34.31 18.93 C-33.19 18.24 -32.07 17.55 -30.92 16.83 C-28.93 15.58 -26.95 14.3 -25 13 C-24 13 -23.01 13 -22 13 C-21.67 12.01 -21.34 11.02 -21 10 C-19.46 8.95 -19.46 8.95 -17.5 8.02 C-16.8 7.68 -16.09 7.34 -15.37 6.99 C-14.62 6.64 -13.88 6.29 -13.12 5.93 C-11.66 5.23 -10.21 4.54 -8.75 3.83 C-8.1 3.53 -7.46 3.22 -6.79 2.91 C-1.07 0 -1.07 0 0 0 Z" fill="currentColor" transform="translate(282,108)"/>
</svg>
