<?xml version="1.0" encoding="UTF-8"?>
<svg version="1.1" xmlns="http://www.w3.org/2000/svg" width="577" height="433">
<path d="M0 0 C3.16837163 1.25045317 6.20218209 2.55841791 9.20703125 4.1640625 C10.33334961 4.76347656 10.33334961 4.76347656 11.48242188 5.375 C12.25134766 5.7875 13.02027344 6.2 13.8125 6.625 C14.60076172 7.04523438 15.38902344 7.46546875 16.20117188 7.8984375 C18.13535326 8.9300009 20.06823983 9.96391172 22 11 C22 11.66 22 12.32 22 13 C22.51691406 13.08507812 23.03382813 13.17015625 23.56640625 13.2578125 C26.97068789 14.29603643 29.8878419 16.0818396 32.9375 17.875 C33.54529297 18.22691406 34.15308594 18.57882813 34.77929688 18.94140625 C37.36479336 20.4419425 39.93733279 21.96214469 42.49609375 23.5078125 C45.67156821 25.40021694 48.8976007 27.1983433 52.125 29 C70.79367402 39.46127148 70.79367402 39.46127148 77.49145508 43.63208008 C80.03883265 45.12254593 80.03883265 45.12254593 83.2019043 46.0300293 C87.17368404 47.56216548 89.24383528 48.71688086 92 52 C93.9878284 58.81945275 93.59544476 66.10192374 93.3996582 73.13354492 C93.31259037 76.55894472 93.33783359 79.97044994 93.37695312 83.39648438 C93.35824153 85.57819251 93.33306887 87.7598568 93.30078125 89.94140625 C93.31399162 91.46973839 93.31399162 91.46973839 93.32746887 93.02894592 C93.05184378 99.96779025 93.05184378 99.96779025 90.01522827 102.94772339 C87.73455281 104.47993258 85.45040911 105.76258786 83 107 C82.01 107.66 81.02 108.32 80 109 C81.269553 109.64834654 82.54069706 110.29357815 83.8125 110.9375 C84.52019531 111.29714844 85.22789062 111.65679687 85.95703125 112.02734375 C88.11810285 113.10730516 88.11810285 113.10730516 91 114 C92.18490705 116.3698141 92.19756274 117.96805033 92.30395508 120.61401367 C92.34261185 121.57228561 92.38126862 122.53055756 92.4210968 123.51786804 C92.55840252 127.91192776 92.65715566 132.30590795 92.73461914 136.70141602 C92.78635409 139.01716322 92.8613907 141.33251216 92.96020508 143.64672852 C93.76797172 162.91065572 93.76797172 162.91065572 89.44677734 168.01733398 C86.31161129 169.8535906 83.47102214 170.96322615 80 172 C78.31356082 172.85803148 76.64254629 173.74817214 75 174.6875 C74.11699219 175.16316406 73.23398437 175.63882813 72.32421875 176.12890625 C66.89222322 179.18639845 61.57538659 182.43777122 56.25585938 185.6862793 C51.86093415 188.353702 47.4557913 190.82526644 42.83374023 193.07470703 C39.99230442 194.5084764 37.31974863 196.1848428 34.625 197.875 C32.95244141 198.91527344 32.95244141 198.91527344 31.24609375 199.9765625 C30.17488281 200.64429688 29.10367187 201.31203125 28 202 C22.74602457 205.23662621 17.51342049 208.30984623 11.953125 210.98828125 C9.0664301 212.48358921 6.37381821 214.25476565 3.6640625 216.046875 C2 217 2 217 0 217 C-0.15628149 196.82777088 -0.3041765 176.65549529 -0.4429636 156.48313808 C-0.50763406 147.1097393 -0.57475317 137.73637161 -0.64819336 128.36303711 C-0.98221247 85.55639305 -1.13937278 42.79734885 0 0 Z M28 51 C28 88.95 28 126.9 28 166 C31.3 164.35 34.6 162.7 38 161 C38 160.34 38 159.68 38 159 C39.299375 158.62875 39.299375 158.62875 40.625 158.25 C44.19705236 156.92701765 46.86173474 155.13669124 50 153 C52.52764297 151.95195291 55.03126007 150.98979642 57.6328125 150.140625 C60.19786105 148.26224722 60.19786105 148.26224722 60.40307617 145.69360352 C60.49362116 142.71910993 60.434128 139.7858368 60.3125 136.8125 C60.27866211 135.25885742 60.27866211 135.25885742 60.24414062 133.67382812 C60.18516846 131.11443596 60.10292567 128.55794049 60 126 C58.68 125.67 57.36 125.34 56 125 C56 124.34 56 123.68 56 123 C54.84242188 122.39671875 53.68484375 121.7934375 52.4921875 121.171875 C50.95303356 120.36475769 49.41397616 119.55745624 47.875 118.75 C47.11445313 118.35425781 46.35390625 117.95851563 45.5703125 117.55078125 C42.12406035 115.73852796 38.77836667 113.91463468 35.5703125 111.703125 C33.23602546 109.81588028 33.23602546 109.81588028 31 110 C31 109.01 31 108.02 31 107 C31.73476563 106.73058594 32.46953125 106.46117187 33.2265625 106.18359375 C35.90344161 105.04120731 38.00841015 103.74132637 40.375 102.0625 C44.15633382 99.47659618 47.7439153 97.66905282 52 96 C53.34013497 95.34711373 54.67741528 94.68774405 56 94 C56 93.34 56 92.68 56 92 C57.98 91.505 57.98 91.505 60 91 C60 83.74 60 76.48 60 69 C57.03 67.35 54.06 65.7 51 64 C49.93910156 63.40574219 48.87820313 62.81148437 47.78515625 62.19921875 C46.88667969 61.70035156 45.98820312 61.20148438 45.0625 60.6875 C43.68771484 59.91986328 43.68771484 59.91986328 42.28515625 59.13671875 C40.12693002 57.85154132 40.12693002 57.85154132 38 58 C38 57.34 38 56.68 38 56 C34.7 54.35 31.4 52.7 28 51 Z " fill="#090909" transform="translate(294,108)"/>
<path d="M0 0 C0 29.04 0 58.08 0 88 C-4.31120139 86.27551944 -8.1474753 84.27795927 -12.125 81.9375 C-16.89033897 79.11484561 -16.89033897 79.11484561 -22 77 C-22 76.34 -22 75.68 -22 75 C-23.175625 74.5359375 -23.175625 74.5359375 -24.375 74.0625 C-27 73 -27 73 -29 72 C-29.33 65.4 -29.66 58.8 -30 52 C-31.27875 52.86625 -32.5575 53.7325 -33.875 54.625 C-49.90023659 65.30007886 -49.90023659 65.30007886 -58 68 C-58 68.66 -58 69.32 -58 70 C-56.92105469 70.39445312 -56.92105469 70.39445312 -55.8203125 70.796875 C-52.92025615 72.03401815 -50.50091082 73.50984417 -47.875 75.25 C-44.1528919 77.66487979 -40.41536034 79.91330366 -36.5 82 C-30.80600606 85.04600246 -25.41428965 88.4869113 -20 92 C-15.08560771 95.14842192 -10.10964608 98.09971443 -4.98046875 100.88671875 C-3.2738097 101.8460833 -1.62900605 102.91399597 0 104 C0.36914349 106.01085854 0.36914349 106.01085854 0.36076355 108.53042603 C0.36488754 109.48397476 0.36901154 110.4375235 0.3732605 111.41996765 C0.36247467 112.46941055 0.35168884 113.51885345 0.34057617 114.60009766 C0.34123329 116.25376595 0.34123329 116.25376595 0.34190369 117.94084167 C0.33980727 121.59875974 0.31643555 125.25622413 0.29296875 128.9140625 C0.28737584 131.44468943 0.28310431 133.9753196 0.28010559 136.50595093 C0.26980657 142.49481588 0.24614272 148.48348495 0.21605712 154.47227132 C0.18255111 161.28957719 0.1660367 168.10689079 0.15097082 174.92425847 C0.11959406 188.94959645 0.06680989 202.97478927 0 217 C-5.00738521 215.0259207 -9.60409149 212.59862007 -14.3125 210 C-15.19897217 209.51233154 -16.08544434 209.02466309 -16.9987793 208.5222168 C-23.218961 205.06792506 -29.26378096 201.40311037 -35.25537109 197.56933594 C-40.31722227 194.3557476 -45.52189461 191.52464214 -50.84008789 188.76147461 C-55.0280254 186.56933796 -58.91795749 184.15007356 -62.79296875 181.453125 C-67.02055033 178.66965536 -71.52560002 176.35846877 -76 174 C-76 173.34 -76 172.68 -76 172 C-76.71668854 171.87992584 -77.43337708 171.75985168 -78.17178345 171.63613892 C-83.23683579 170.49687788 -87.33798629 168.75893539 -91 165 C-92.39600426 160.30718427 -92.16902858 155.69529672 -91.9765625 150.8515625 C-91.95789134 149.47013484 -91.94366607 148.08864058 -91.9336853 146.7071228 C-91.89565058 143.08525049 -91.79758039 139.46744282 -91.68664551 135.84716797 C-91.58400882 132.14736939 -91.53860614 128.44690811 -91.48828125 124.74609375 C-91.3812988 117.49555018 -91.21083838 110.24834628 -91 103 C-90.01 102.505 -90.01 102.505 -89 102 C-86.52573502 103.1309216 -84.18895553 104.31378324 -81.8125 105.625 C-81.12994141 105.99455811 -80.44738281 106.36411621 -79.74414062 106.74487305 C-76.35929212 108.60321329 -73.09869524 110.49738286 -70 112.8125 C-66.72909302 115.19753634 -63.73987249 116.50405101 -60 118 C-58.1555335 119.8444665 -58.84746173 122.8648245 -58.82421875 125.3359375 C-58.78844727 127.27339844 -58.78844727 127.27339844 -58.75195312 129.25 C-58.71683413 131.31293424 -58.68749818 133.37527981 -58.67407227 135.43847656 C-58.65860189 137.42534879 -58.61675785 139.41196047 -58.57421875 141.3984375 C-58.55963623 142.59130371 -58.54505371 143.78416992 -58.5300293 145.01318359 C-58.2827142 148.07037592 -58.2827142 148.07037592 -56.15551758 149.83447266 C-53.87362899 151.06833109 -51.52481973 152.01076847 -49.125 152.98828125 C-42.3661571 156.20618623 -36.21375573 160.85552952 -30 165 C-29.70239346 159.00475449 -29.485223 153.01383384 -29.34082031 147.01293945 C-29.28062104 144.97441727 -29.19883122 142.93641024 -29.09472656 140.8996582 C-28.00429068 129.23425612 -28.00429068 129.23425612 -32.55102539 119.17016602 C-35.66168042 117.35714617 -38.59874885 116.15576234 -42 115 C-43.66948315 114.06172459 -45.32077818 113.08902096 -46.9375 112.0625 C-47.73800781 111.58167969 -48.53851563 111.10085937 -49.36328125 110.60546875 C-51.32566246 109.41059663 -53.28017967 108.20279017 -55.23046875 106.98828125 C-61.96960245 102.73437212 -61.96960245 102.73437212 -69 99 C-74.92605039 96.16964757 -80.51412055 92.5963768 -86 89 C-86.87785156 88.46020508 -87.75570312 87.92041016 -88.66015625 87.36425781 C-91.34754626 84.64882742 -91.56856806 83.12034683 -91.56648254 79.36297607 C-91.5277729 78.27838104 -91.5277729 78.27838104 -91.48828125 77.171875 C-91.48120651 76.42286926 -91.47413177 75.67386353 -91.46684265 74.90216064 C-91.43892138 72.51707763 -91.37619535 70.13436944 -91.3125 67.75 C-91.28741382 66.13024232 -91.2646012 64.51044772 -91.24414062 62.890625 C-91.18910325 58.92617261 -91.10285322 54.96348847 -91 51 C-89.86715576 50.5654248 -89.86715576 50.5654248 -88.71142578 50.12207031 C-85.215888 48.67551065 -82.0847757 46.73038652 -78.875 44.75 C-74.42602626 42.03899109 -69.97277144 39.39189858 -65.375 36.9375 C-60.12069776 34.12578072 -55.08270488 31.00612593 -50.04296875 27.83203125 C-47.08973654 26.05402623 -44.08171084 24.54085542 -41 23 C-38.75696125 21.66893705 -36.52789514 20.31408119 -34.3125 18.9375 C-33.19488281 18.24527344 -32.07726562 17.55304688 -30.92578125 16.83984375 C-28.93328955 15.58688836 -26.95839973 14.30559982 -25 13 C-24.01 13 -23.02 13 -22 13 C-21.67 12.01 -21.34 11.02 -21 10 C-19.46533203 8.95678711 -19.46533203 8.95678711 -17.5078125 8.02734375 C-16.80269531 7.68509766 -16.09757812 7.34285156 -15.37109375 6.99023438 C-14.62988281 6.64283203 -13.88867188 6.29542969 -13.125 5.9375 C-11.66846934 5.23995236 -10.21270989 4.54079158 -8.7578125 3.83984375 C-8.1095752 3.53425537 -7.46133789 3.22866699 -6.79345703 2.91381836 C-1.07480631 0 -1.07480631 0 0 0 Z " fill="#070707" transform="translate(282,108)"/>
<path d="" fill="#FFFFFF" transform="translate(0,0)"/>
<path d="" fill="#FFFFFF" transform="translate(0,0)"/>
<path d="" fill="#FFFFFF" transform="translate(0,0)"/>
<path d="" fill="#FFFFFF" transform="translate(0,0)"/>
<path d="" fill="#FFFFFF" transform="translate(0,0)"/>
<path d="" fill="#FFFFFF" transform="translate(0,0)"/>
<path d="" fill="#FFFFFF" transform="translate(0,0)"/>
<path d="" fill="#FFFFFF" transform="translate(0,0)"/>
<path d="" fill="#FFFFFF" transform="translate(0,0)"/>
<path d="" fill="#FFFFFF" transform="translate(0,0)"/>
<path d="" fill="#FFFFFF" transform="translate(0,0)"/>
<path d="" fill="#FFFFFF" transform="translate(0,0)"/>
<path d="" fill="#FFFFFF" transform="translate(0,0)"/>
<path d="" fill="#FFFFFF" transform="translate(0,0)"/>
<path d="" fill="#FFFFFF" transform="translate(0,0)"/>
<path d="" fill="#FFFFFF" transform="translate(0,0)"/>
<path d="" fill="#FFFFFF" transform="translate(0,0)"/>
<path d="" fill="#FFFFFF" transform="translate(0,0)"/>
<path d="" fill="#FFFFFF" transform="translate(0,0)"/>
<path d="" fill="#FFFFFF" transform="translate(0,0)"/>
<path d="" fill="#FFFFFF" transform="translate(0,0)"/>
<path d="" fill="#FFFFFF" transform="translate(0,0)"/>
<path d="" fill="#FFFFFF" transform="translate(0,0)"/>
<path d="" fill="#FFFFFF" transform="translate(0,0)"/>
<path d="" fill="#FFFFFF" transform="translate(0,0)"/>
<path d="" fill="#FFFFFF" transform="translate(0,0)"/>
<path d="" fill="#FFFFFF" transform="translate(0,0)"/>
<path d="" fill="#FFFFFF" transform="translate(0,0)"/>
<path d="" fill="#FFFFFF" transform="translate(0,0)"/>
<path d="" fill="#FFFFFF" transform="translate(0,0)"/>
<path d="" fill="#FFFFFF" transform="translate(0,0)"/>
<path d="" fill="#FFFFFF" transform="translate(0,0)"/>
<path d="" fill="#FFFFFF" transform="translate(0,0)"/>
<path d="" fill="#FFFFFF" transform="translate(0,0)"/>
<path d="" fill="#FFFFFF" transform="translate(0,0)"/>
<path d="" fill="#FFFFFF" transform="translate(0,0)"/>
<path d="" fill="#FFFFFF" transform="translate(0,0)"/>
<path d="" fill="#FFFFFF" transform="translate(0,0)"/>
<path d="" fill="#FFFFFF" transform="translate(0,0)"/>
<path d="" fill="#FFFFFF" transform="translate(0,0)"/>
<path d="" fill="#FFFFFF" transform="translate(0,0)"/>
<path d="" fill="#FFFFFF" transform="translate(0,0)"/>
<path d="" fill="#FFFFFF" transform="translate(0,0)"/>
<path d="" fill="#FFFFFF" transform="translate(0,0)"/>
<path d="" fill="#FFFFFF" transform="translate(0,0)"/>
<path d="" fill="#FFFFFF" transform="translate(0,0)"/>
<path d="" fill="#FFFFFF" transform="translate(0,0)"/>
<path d="" fill="#FFFFFF" transform="translate(0,0)"/>
<path d="" fill="#FFFFFF" transform="translate(0,0)"/>
<path d="" fill="#FFFFFF" transform="translate(0,0)"/>
<path d="" fill="#FFFFFF" transform="translate(0,0)"/>
<path d="" fill="#FFFFFF" transform="translate(0,0)"/>
<path d="" fill="#FFFFFF" transform="translate(0,0)"/>
<path d="" fill="#FFFFFF" transform="translate(0,0)"/>
<path d="" fill="#FFFFFF" transform="translate(0,0)"/>
<path d="" fill="#FFFFFF" transform="translate(0,0)"/>
<path d="" fill="#FFFFFF" transform="translate(0,0)"/>
<path d="" fill="#FFFFFF" transform="translate(0,0)"/>
<path d="" fill="#FFFFFF" transform="translate(0,0)"/>
<path d="" fill="#FFFFFF" transform="translate(0,0)"/>
<path d="" fill="#FFFFFF" transform="translate(0,0)"/>
<path d="" fill="#FFFFFF" transform="translate(0,0)"/>
<path d="" fill="#FFFFFF" transform="translate(0,0)"/>
<path d="" fill="#FFFFFF" transform="translate(0,0)"/>
<path d="" fill="#FFFFFF" transform="translate(0,0)"/>
<path d="" fill="#FFFFFF" transform="translate(0,0)"/>
<path d="" fill="#FFFFFF" transform="translate(0,0)"/>
<path d="" fill="#FFFFFF" transform="translate(0,0)"/>
<path d="" fill="#FFFFFF" transform="translate(0,0)"/>
<path d="" fill="#FFFFFF" transform="translate(0,0)"/>
<path d="" fill="#FFFFFF" transform="translate(0,0)"/>
<path d="" fill="#FFFFFF" transform="translate(0,0)"/>
<path d="" fill="#FFFFFF" transform="translate(0,0)"/>
<path d="" fill="#FFFFFF" transform="translate(0,0)"/>
<path d="" fill="#FFFFFF" transform="translate(0,0)"/>
<path d="" fill="#FFFFFF" transform="translate(0,0)"/>
<path d="" fill="#FFFFFF" transform="translate(0,0)"/>
<path d="" fill="#FFFFFF" transform="translate(0,0)"/>
<path d="" fill="#FFFFFF" transform="translate(0,0)"/>
<path d="" fill="#FFFFFF" transform="translate(0,0)"/>
<path d="" fill="#FFFFFF" transform="translate(0,0)"/>
</svg>
